<svg width="34" height="34" viewBox="0 0 34 34" fill="none" xmlns="http://www.w3.org/2000/svg">
<path d="M27.8875 26.1125L23.6375 21.875C25.0087 20.1281 25.7528 17.9708 25.75 15.75C25.75 13.7722 25.1635 11.8388 24.0647 10.1943C22.9659 8.54981 21.4041 7.26809 19.5768 6.51121C17.7496 5.75433 15.7389 5.5563 13.7991 5.94215C11.8593 6.328 10.0775 7.28041 8.67894 8.67894C7.28041 10.0775 6.328 11.8593 5.94215 13.7991C5.5563 15.7389 5.75433 17.7496 6.51121 19.5768C7.26809 21.4041 8.54981 22.9659 10.1943 24.0647C11.8388 25.1635 13.7722 25.75 15.75 25.75C17.9708 25.7528 20.1281 25.0087 21.875 23.6375L26.1125 27.8875C26.2287 28.0047 26.367 28.0977 26.5193 28.1611C26.6716 28.2246 26.835 28.2573 27 28.2573C27.165 28.2573 27.3284 28.2246 27.4807 28.1611C27.633 28.0977 27.7713 28.0047 27.8875 27.8875C28.0047 27.7713 28.0977 27.633 28.1611 27.4807C28.2246 27.3284 28.2573 27.165 28.2573 27C28.2573 26.835 28.2246 26.6716 28.1611 26.5193C28.0977 26.367 28.0047 26.2287 27.8875 26.1125ZM8.25 15.75C8.25 14.2666 8.68987 12.8166 9.51398 11.5832C10.3381 10.3499 11.5094 9.38857 12.8799 8.82091C14.2503 8.25325 15.7583 8.10473 17.2132 8.39411C18.668 8.6835 20.0044 9.39781 21.0533 10.4467C22.1022 11.4956 22.8165 12.832 23.1059 14.2868C23.3953 15.7417 23.2468 17.2497 22.6791 18.6201C22.1114 19.9906 21.1502 21.1619 19.9168 21.986C18.6834 22.8101 17.2334 23.25 15.75 23.25C13.7609 23.25 11.8532 22.4598 10.4467 21.0533C9.04018 19.6468 8.25 17.7391 8.25 15.75Z" fill="#F9F9F9"/>
</svg>
